# Blender v2.78 (sub 0) OBJ File: 'UnitSphere.blend'
# www.blender.org
o Sphere
v 0.000000 0.923880 -0.382683
v 0.000000 0.707107 -0.707107
v 0.000000 0.382683 -0.923880
v 0.000000 -0.000000 -1.000000
v 0.000000 -0.382684 -0.923880
v 0.000000 -0.707107 -0.707107
v 0.146447 0.923880 -0.353553
v 0.270598 0.707107 -0.653281
v 0.353553 0.382683 -0.853553
v 0.382683 -0.000000 -0.923880
v 0.353553 -0.382684 -0.853553
v 0.270598 -0.707107 -0.653281
v 0.146447 -0.923880 -0.353553
v -0.000000 1.000000 -0.000000
v 0.270598 0.923880 -0.270598
v 0.500000 0.707107 -0.500000
v 0.653281 0.382683 -0.653281
v 0.707107 -0.000000 -0.707107
v 0.653281 -0.382684 -0.653281
v 0.500000 -0.707107 -0.500000
v 0.270598 -0.923880 -0.270598
v 0.353553 0.923880 -0.146447
v 0.653281 0.707107 -0.270598
v 0.853553 0.382683 -0.353553
v 0.923879 -0.000000 -0.382683
v 0.853553 -0.382684 -0.353553
v 0.653281 -0.707107 -0.270598
v 0.353553 -0.923880 -0.146447
v 0.382683 0.923880 -0.000000
v 0.707107 0.707107 -0.000000
v 0.923879 0.382683 -0.000000
v 1.000000 -0.000000 -0.000000
v 0.923879 -0.382684 -0.000000
v 0.707107 -0.707107 -0.000000
v 0.382683 -0.923880 -0.000000
v 0.353553 0.923880 0.146446
v 0.653281 0.707107 0.270598
v 0.853553 0.382683 0.353553
v 0.923879 -0.000000 0.382683
v 0.853553 -0.382684 0.353553
v 0.653281 -0.707107 0.270598
v 0.353553 -0.923880 0.146446
v 0.270598 0.923880 0.270598
v 0.500000 0.707107 0.500000
v 0.653281 0.382683 0.653281
v 0.707106 -0.000000 0.707107
v 0.653281 -0.382684 0.653281
v 0.500000 -0.707107 0.500000
v 0.270598 -0.923880 0.270598
v 0.146446 0.923880 0.353553
v 0.270598 0.707107 0.653281
v 0.353553 0.382683 0.853553
v 0.382683 -0.000000 0.923879
v 0.353553 -0.382684 0.853553
v 0.270598 -0.707107 0.653281
v 0.146446 -0.923880 0.353553
v -0.000000 0.923880 0.382683
v -0.000000 0.707107 0.707106
v -0.000000 0.382683 0.923879
v -0.000000 -0.000000 1.000000
v -0.000000 -0.382684 0.923879
v -0.000000 -0.707107 0.707106
v -0.000000 -0.923880 0.382683
v -0.146447 0.923880 0.353553
v -0.270598 0.707107 0.653281
v -0.353554 0.382683 0.853553
v -0.382684 -0.000000 0.923879
v -0.353554 -0.382684 0.853553
v -0.270598 -0.707107 0.653281
v -0.146447 -0.923880 0.353553
v -0.270598 0.923880 0.270598
v -0.500000 0.707107 0.499999
v -0.653282 0.382683 0.653281
v -0.707107 -0.000000 0.707106
v -0.653282 -0.382684 0.653281
v -0.500000 -0.707107 0.499999
v -0.270598 -0.923880 0.270598
v 0.000000 -1.000000 -0.000000
v -0.353553 0.923880 0.146446
v -0.653281 0.707107 0.270597
v -0.853553 0.382683 0.353553
v -0.923879 -0.000000 0.382683
v -0.853553 -0.382684 0.353553
v -0.653281 -0.707107 0.270597
v -0.353553 -0.923880 0.146446
v -0.382683 0.923880 -0.000000
v -0.707106 0.707107 -0.000000
v -0.923879 0.382683 -0.000001
v -1.000000 -0.000000 -0.000001
v -0.923879 -0.382684 -0.000001
v -0.707106 -0.707107 -0.000000
v -0.382683 -0.923880 -0.000000
v -0.353553 0.923880 -0.146447
v -0.653281 0.707107 -0.270598
v -0.853553 0.382683 -0.353554
v -0.923879 -0.000000 -0.382684
v -0.853553 -0.382684 -0.353554
v -0.653281 -0.707107 -0.270598
v -0.353553 -0.923880 -0.146447
v -0.270598 0.923880 -0.270598
v -0.499999 0.707107 -0.500000
v -0.653281 0.382683 -0.653282
v -0.707106 -0.000000 -0.707107
v -0.653281 -0.382684 -0.653282
v -0.499999 -0.707107 -0.500000
v -0.270598 -0.923880 -0.270598
v -0.146446 0.923880 -0.353553
v -0.270598 0.707107 -0.653281
v -0.353553 0.382683 -0.853553
v -0.382683 -0.000000 -0.923880
v -0.353553 -0.382684 -0.853553
v -0.270598 -0.707107 -0.653281
v -0.146446 -0.923880 -0.353553
v 0.000000 -0.923880 -0.382683
vn 0.1098 -0.8264 -0.5522
vn 0.1915 -0.1915 -0.9626
vn 0.1632 0.5481 -0.8203
vn 0.0388 0.9800 -0.1949
vn 0.0388 -0.9800 -0.1949
vn 0.1632 -0.5481 -0.8203
vn 0.1915 0.1915 -0.9626
vn 0.1098 0.8264 -0.5522
vn 0.1104 0.9800 -0.1653
vn 0.1104 -0.9800 -0.1653
vn 0.4647 -0.5481 -0.6954
vn 0.5453 0.1915 -0.8161
vn 0.3128 0.8264 -0.4681
vn 0.3128 -0.8264 -0.4681
vn 0.5453 -0.1915 -0.8161
vn 0.4647 0.5481 -0.6954
vn 0.6954 -0.5481 -0.4647
vn 0.8161 0.1915 -0.5453
vn 0.4681 0.8264 -0.3128
vn 0.4681 -0.8264 -0.3128
vn 0.8161 -0.1915 -0.5453
vn 0.6954 0.5481 -0.4647
vn 0.1653 0.9800 -0.1104
vn 0.1653 -0.9800 -0.1104
vn 0.5522 -0.8264 -0.1098
vn 0.9626 -0.1915 -0.1915
vn 0.8203 0.5481 -0.1632
vn 0.1949 0.9800 -0.0388
vn 0.1949 -0.9800 -0.0388
vn 0.8203 -0.5481 -0.1632
vn 0.9626 0.1915 -0.1915
vn 0.5522 0.8264 -0.1098
vn 0.9626 -0.1915 0.1915
vn 0.8203 0.5481 0.1632
vn 0.1949 0.9800 0.0388
vn 0.1949 -0.9800 0.0388
vn 0.8203 -0.5481 0.1632
vn 0.9626 0.1915 0.1915
vn 0.5522 0.8264 0.1098
vn 0.5522 -0.8264 0.1098
vn 0.1653 -0.9800 0.1104
vn 0.6954 -0.5481 0.4647
vn 0.8161 0.1915 0.5453
vn 0.4681 0.8264 0.3128
vn 0.4681 -0.8264 0.3128
vn 0.8161 -0.1915 0.5453
vn 0.6954 0.5481 0.4647
vn 0.1653 0.9800 0.1104
vn 0.5453 0.1915 0.8161
vn 0.3128 0.8264 0.4681
vn 0.3128 -0.8264 0.4681
vn 0.5453 -0.1915 0.8161
vn 0.4647 0.5481 0.6954
vn 0.1104 0.9800 0.1653
vn 0.1104 -0.9800 0.1653
vn 0.4647 -0.5481 0.6954
vn 0.1098 -0.8264 0.5522
vn 0.1915 -0.1915 0.9626
vn 0.1632 0.5481 0.8203
vn 0.0388 0.9800 0.1949
vn 0.0388 -0.9800 0.1949
vn 0.1632 -0.5481 0.8203
vn 0.1915 0.1915 0.9626
vn 0.1098 0.8264 0.5522
vn -0.1632 0.5481 0.8203
vn -0.0388 0.9800 0.1949
vn -0.0388 -0.9800 0.1949
vn -0.1632 -0.5481 0.8203
vn -0.1915 0.1915 0.9626
vn -0.1098 0.8264 0.5522
vn -0.1098 -0.8264 0.5522
vn -0.1915 -0.1915 0.9626
vn -0.1104 -0.9800 0.1653
vn -0.4647 -0.5481 0.6954
vn -0.5453 0.1915 0.8161
vn -0.3128 0.8264 0.4681
vn -0.3128 -0.8264 0.4681
vn -0.5453 -0.1915 0.8161
vn -0.4647 0.5481 0.6954
vn -0.1104 0.9800 0.1653
vn -0.4681 0.8264 0.3128
vn -0.4681 -0.8264 0.3128
vn -0.8161 -0.1915 0.5453
vn -0.6954 0.5481 0.4647
vn -0.1653 0.9800 0.1104
vn -0.1653 -0.9800 0.1104
vn -0.6954 -0.5481 0.4647
vn -0.8161 0.1915 0.5453
vn -0.5522 -0.8264 0.1098
vn -0.9626 -0.1915 0.1915
vn -0.8203 0.5481 0.1632
vn -0.1949 0.9800 0.0388
vn -0.1949 -0.9800 0.0388
vn -0.8203 -0.5481 0.1632
vn -0.9626 0.1915 0.1915
vn -0.5522 0.8264 0.1098
vn -0.1949 0.9800 -0.0388
vn -0.1949 -0.9800 -0.0388
vn -0.8203 -0.5481 -0.1632
vn -0.9626 0.1915 -0.1915
vn -0.5522 0.8264 -0.1098
vn -0.5522 -0.8264 -0.1098
vn -0.9626 -0.1915 -0.1915
vn -0.8203 0.5481 -0.1632
vn -0.6954 -0.5481 -0.4647
vn -0.8161 0.1915 -0.5453
vn -0.4681 0.8264 -0.3128
vn -0.4681 -0.8264 -0.3128
vn -0.8161 -0.1915 -0.5453
vn -0.6954 0.5481 -0.4647
vn -0.1653 0.9800 -0.1104
vn -0.1653 -0.9800 -0.1104
vn -0.3128 -0.8264 -0.4681
vn -0.5453 -0.1915 -0.8161
vn -0.4647 0.5481 -0.6954
vn -0.1104 0.9800 -0.1653
vn -0.1104 -0.9800 -0.1653
vn -0.4647 -0.5481 -0.6954
vn -0.5453 0.1915 -0.8161
vn -0.3128 0.8264 -0.4681
vn -0.1915 -0.1915 -0.9626
vn -0.1632 0.5481 -0.8203
vn -0.0388 0.9800 -0.1949
vn -0.0388 -0.9800 -0.1949
vn -0.1632 -0.5481 -0.8203
vn -0.1915 0.1915 -0.9626
vn -0.1098 0.8264 -0.5522
vn -0.1098 -0.8264 -0.5522
s off
f 6//1 13//1 114//1
f 5//2 10//2 11//2
f 2//3 9//3 3//3
f 1//4 14//4 7//4
f 78//5 114//5 13//5
f 6//6 11//6 12//6
f 3//7 10//7 4//7
f 1//8 8//8 2//8
f 7//9 14//9 15//9
f 78//10 13//10 21//10
f 12//11 19//11 20//11
f 10//12 17//12 18//12
f 7//13 16//13 8//13
f 13//14 20//14 21//14
f 10//15 19//15 11//15
f 8//16 17//16 9//16
f 19//17 27//17 20//17
f 17//18 25//18 18//18
f 15//19 23//19 16//19
f 20//20 28//20 21//20
f 18//21 26//21 19//21
f 16//22 24//22 17//22
f 15//23 14//23 22//23
f 78//24 21//24 28//24
f 28//25 34//25 35//25
f 25//26 33//26 26//26
f 23//27 31//27 24//27
f 22//28 14//28 29//28
f 78//29 28//29 35//29
f 26//30 34//30 27//30
f 24//31 32//31 25//31
f 22//32 30//32 23//32
f 33//33 39//33 40//33
f 30//34 38//34 31//34
f 29//35 14//35 36//35
f 78//36 35//36 42//36
f 33//37 41//37 34//37
f 31//38 39//38 32//38
f 29//39 37//39 30//39
f 35//40 41//40 42//40
f 78//41 42//41 49//41
f 40//42 48//42 41//42
f 38//43 46//43 39//43
f 36//44 44//44 37//44
f 42//45 48//45 49//45
f 40//46 46//46 47//46
f 37//47 45//47 38//47
f 36//48 14//48 43//48
f 45//49 53//49 46//49
f 44//50 50//50 51//50
f 48//51 56//51 49//51
f 46//52 54//52 47//52
f 44//53 52//53 45//53
f 43//54 14//54 50//54
f 78//55 49//55 56//55
f 47//56 55//56 48//56
f 55//57 63//57 56//57
f 53//58 61//58 54//58
f 52//59 58//59 59//59
f 50//60 14//60 57//60
f 78//61 56//61 63//61
f 55//62 61//62 62//62
f 53//63 59//63 60//63
f 50//64 58//64 51//64
f 58//65 66//65 59//65
f 57//66 14//66 64//66
f 78//67 63//67 70//67
f 61//68 69//68 62//68
f 59//69 67//69 60//69
f 58//70 64//70 65//70
f 62//71 70//71 63//71
f 60//72 68//72 61//72
f 78//73 70//73 77//73
f 68//74 76//74 69//74
f 66//75 74//75 67//75
f 64//76 72//76 65//76
f 69//77 77//77 70//77
f 68//78 74//78 75//78
f 66//79 72//79 73//79
f 64//80 14//80 71//80
f 72//81 79//81 80//81
f 77//82 84//82 85//82
f 75//83 82//83 83//83
f 72//84 81//84 73//84
f 71//85 14//85 79//85
f 78//86 77//86 85//86
f 75//87 84//87 76//87
f 73//88 82//88 74//88
f 84//89 92//89 85//89
f 82//90 90//90 83//90
f 80//91 88//91 81//91
f 79//92 14//92 86//92
f 78//93 85//93 92//93
f 84//94 90//94 91//94
f 82//95 88//95 89//95
f 80//96 86//96 87//96
f 86//97 14//97 93//97
f 78//98 92//98 99//98
f 90//99 98//99 91//99
f 89//100 95//100 96//100
f 87//101 93//101 94//101
f 91//102 99//102 92//102
f 89//103 97//103 90//103
f 87//104 95//104 88//104
f 97//105 105//105 98//105
f 95//106 103//106 96//106
f 94//107 100//107 101//107
f 99//108 105//108 106//108
f 96//109 104//109 97//109
f 94//110 102//110 95//110
f 93//111 14//111 100//111
f 78//112 99//112 106//112
f 105//113 113//113 106//113
f 103//114 111//114 104//114
f 101//115 109//115 102//115
f 100//116 14//116 107//116
f 78//117 106//117 113//117
f 105//118 111//118 112//118
f 103//119 109//119 110//119
f 101//120 107//120 108//120
f 110//121 5//121 111//121
f 109//122 2//122 3//122
f 107//123 14//123 1//123
f 78//124 113//124 114//124
f 111//125 6//125 112//125
f 110//126 3//126 4//126
f 108//127 1//127 2//127
f 113//128 6//128 114//128
f 6//1 12//1 13//1
f 5//2 4//2 10//2
f 2//3 8//3 9//3
f 6//6 5//6 11//6
f 3//7 9//7 10//7
f 1//8 7//8 8//8
f 12//11 11//11 19//11
f 10//12 9//12 17//12
f 7//13 15//13 16//13
f 13//14 12//14 20//14
f 10//15 18//15 19//15
f 8//16 16//16 17//16
f 19//17 26//17 27//17
f 17//18 24//18 25//18
f 15//19 22//19 23//19
f 20//20 27//20 28//20
f 18//21 25//21 26//21
f 16//22 23//22 24//22
f 28//25 27//25 34//25
f 25//26 32//26 33//26
f 23//27 30//27 31//27
f 26//30 33//30 34//30
f 24//31 31//31 32//31
f 22//32 29//32 30//32
f 33//33 32//33 39//33
f 30//34 37//34 38//34
f 33//37 40//37 41//37
f 31//38 38//38 39//38
f 29//39 36//39 37//39
f 35//40 34//40 41//40
f 40//42 47//42 48//42
f 38//43 45//43 46//43
f 36//44 43//44 44//44
f 42//45 41//45 48//45
f 40//46 39//46 46//46
f 37//47 44//47 45//47
f 45//49 52//49 53//49
f 44//50 43//50 50//50
f 48//51 55//51 56//51
f 46//52 53//52 54//52
f 44//53 51//53 52//53
f 47//56 54//56 55//56
f 55//57 62//57 63//57
f 53//58 60//58 61//58
f 52//59 51//59 58//59
f 55//62 54//62 61//62
f 53//63 52//63 59//63
f 50//64 57//64 58//64
f 58//65 65//65 66//65
f 61//68 68//68 69//68
f 59//69 66//69 67//69
f 58//70 57//70 64//70
f 62//71 69//71 70//71
f 60//72 67//72 68//72
f 68//74 75//74 76//74
f 66//75 73//75 74//75
f 64//76 71//76 72//76
f 69//77 76//77 77//77
f 68//78 67//78 74//78
f 66//79 65//79 72//79
f 72//81 71//81 79//81
f 77//82 76//82 84//82
f 75//83 74//83 82//83
f 72//84 80//84 81//84
f 75//87 83//87 84//87
f 73//88 81//88 82//88
f 84//89 91//89 92//89
f 82//90 89//90 90//90
f 80//91 87//91 88//91
f 84//94 83//94 90//94
f 82//95 81//95 88//95
f 80//96 79//96 86//96
f 90//99 97//99 98//99
f 89//100 88//100 95//100
f 87//101 86//101 93//101
f 91//102 98//102 99//102
f 89//103 96//103 97//103
f 87//104 94//104 95//104
f 97//105 104//105 105//105
f 95//106 102//106 103//106
f 94//107 93//107 100//107
f 99//108 98//108 105//108
f 96//109 103//109 104//109
f 94//110 101//110 102//110
f 105//113 112//113 113//113
f 103//114 110//114 111//114
f 101//115 108//115 109//115
f 105//118 104//118 111//118
f 103//119 102//119 109//119
f 101//120 100//120 107//120
f 110//121 4//121 5//121
f 109//122 108//122 2//122
f 111//125 5//125 6//125
f 110//126 109//126 3//126
f 108//127 107//127 1//127
f 113//128 112//128 6//128
